<?xml version="1.0" encoding="UTF-8" standalone="no"?>
<svg width="887px" height="209px" viewBox="0 0 887 209" version="1.1" xmlns="http://www.w3.org/2000/svg" xmlns:xlink="http://www.w3.org/1999/xlink" xmlns:sketch="http://www.bohemiancoding.com/sketch/ns">
    <!-- Generator: Sketch 3.4.2 (15855) - http://www.bohemiancoding.com/sketch -->
    <title>Vossloh_Logo_svg</title>
    <desc>Created with Sketch.</desc>
    <defs/>
    <g id="Page-1" stroke="none" stroke-width="1" fill="none" fill-rule="evenodd" sketch:type="MSPage">
        <g id="Vossloh_Logo_svg" sketch:type="MSLayerGroup">
            <path d="M148.071288,61.932155 L100.401688,61.932155 L76.566888,157.40722 L76.023588,157.40722 L51.645588,61.932155 L0.716498,61.932155 L45.126688,201.20621 L102.846288,201.20621 L148.071288,61.932155" id="path18705" fill="#000000" sketch:type="MSShapeGroup"/>
            <path d="M407.334328,158.69743 C407.334328,134.38725 396.741328,126.10279 379.153588,119.71971 L362.856388,113.81192 C351.244588,109.53386 346.626988,106.34232 346.626988,101.52105 C346.626988,94.05146 354.503988,91.33521 363.942988,91.33521 C376.437588,91.33521 389.678728,95.88487 398.642328,99.89133 L400.272328,65.191608 C389.950428,61.728466 375.622588,58.740616 361.022688,58.740616 C318.174688,58.740616 302.216488,79.85921 302.216488,104.44099 C302.216488,122.09638 308.735688,135.74537 331.212088,143.75823 L346.083688,149.05484 C358.034988,153.40082 361.837588,156.0491 361.837588,160.87042 C361.837588,167.2535 355.047288,170.71669 341.737688,170.71669 C324.693388,170.71669 312.470388,164.60522 304.932988,160.87042 L303.846388,198.01467 C311.655488,200.93461 331.483688,204.3978 346.898688,204.3978 C388.592628,204.3978 407.334328,187.55722 407.334328,158.69743" id="path18707" fill="#231F20" sketch:type="MSShapeGroup"/>
            <path d="M521.144028,158.69743 C521.144028,134.38725 510.550528,126.10279 492.962828,119.71971 L476.733528,113.81192 C465.053928,109.53386 460.436228,106.34232 460.436228,101.52105 C460.436228,94.05146 468.313228,91.33521 477.820128,91.33521 C490.246828,91.33521 503.556428,95.88487 512.452128,99.89133 L514.081528,65.191608 C503.828128,61.728466 489.431828,58.740616 474.832428,58.740616 C431.983928,58.740616 416.026228,79.85921 416.026228,104.44099 C416.026228,122.09638 422.544928,135.74537 445.021828,143.75823 L459.892928,149.05484 C471.844728,153.40082 475.647428,156.0491 475.647428,160.87042 C475.647428,167.2535 468.856528,170.71669 455.546928,170.71669 C438.503228,170.71669 426.347628,164.60522 418.742328,160.87042 L417.656228,198.01467 C425.533128,200.93461 445.293528,204.3978 460.707928,204.3978 C502.469828,204.3978 521.144028,187.55722 521.144028,158.69743" id="path18709" fill="#231F20" sketch:type="MSShapeGroup"/>
            <path d="M532.280428,201.20621 L581.036328,201.20621 L581.036328,0.749376 L532.280428,0.749376 L532.280428,201.20621 L532.280428,201.20621 Z" id="path18711" fill="#231F20" sketch:type="MSShapeGroup"/>
            <path d="M886.543328,201.20621 L886.543328,103.62613 C886.543328,72.932868 867.869028,58.740616 843.762728,58.740616 C827.261728,58.740616 814.767128,65.463266 806.618428,79.58755 L805.803528,79.58755 C806.346828,74.49468 806.890128,68.111545 806.890128,62.475415 L806.890128,0.749376 L758.134128,0.749376 L758.134128,201.20621 L806.890128,201.20621 L806.890128,124.74472 C806.890128,110.34872 812.322128,97.78626 824.545128,97.78626 C833.712428,97.78626 837.786828,104.16933 837.786828,117.54672 L837.786828,201.20621 L886.543328,201.20621" id="path18713" fill="#231F20" sketch:type="MSShapeGroup"/>
            <path d="M140.805388,131.60314 C140.805388,99.07646 160.905488,71.303088 189.357988,59.962911 L215.161688,107.90413 L185.147888,163.72244 L223.921488,163.72244 L253.935888,107.90413 L225.415688,54.869987 C264.461488,58.672701 294.950688,91.53895 294.950688,131.60314 C294.950688,174.17984 260.454588,208.67581 217.878288,208.67581 C175.301388,208.67581 140.805388,174.17984 140.805388,131.60314" id="path18715" fill="#32B53F" sketch:type="MSShapeGroup"/>
            <path d="M592.444328,130.85619 C592.444328,88.2795 626.940428,53.783521 669.517328,53.783521 C712.094228,53.783521 746.589828,88.2795 746.589828,130.85619 C746.589828,170.92038 716.100628,203.78663 677.054728,207.58934 L705.574928,154.5552 L675.560628,98.66898 L636.719028,98.66898 L666.801328,154.5552 L640.997128,202.49642 C612.544828,191.15625 592.444328,163.38287 592.444328,130.85619" id="path18717" fill="#231F20" sketch:type="MSShapeGroup"/>
        </g>
    </g>
</svg>